<svg
        xmlns="http://www.w3.org/2000/svg"
        width="94"
        height="22"
        viewBox="0 0 94 22"
        fill="none"
>
    <g clip-path="url(#clip0_2910_27428)">
        <path
                d="M22.7647 6.69531H23.9663C24.1474 6.69531 24.312 6.81079 24.3614 6.97576L26.4683 12.6507L28.5752 6.97576C28.641 6.81079 28.8056 6.69531 28.9702 6.69531H30.1224C30.3858 6.69531 30.5668 6.95926 30.4681 7.20671L27.3736 14.9437C27.3077 15.1087 27.1431 15.2077 26.9785 15.2077H25.9251C25.744 15.2077 25.5959 15.1087 25.53 14.9437L22.4355 7.20671C22.3203 6.95926 22.5014 6.69531 22.7647 6.69531Z"
                fill="#E31515"
        />
        <path
                d="M30.7627 10.9331V10.9166C30.7627 8.50804 32.6556 6.54492 35.2563 6.54492C37.857 6.54492 39.7335 8.49155 39.7335 10.8836V10.9001C39.7335 13.3086 37.8406 15.2717 35.2399 15.2717C32.6227 15.2882 30.7627 13.3416 30.7627 10.9331ZM37.7912 10.9331V10.9166C37.7912 9.46486 36.7377 8.26059 35.2399 8.26059C33.742 8.26059 32.705 9.44836 32.705 10.9001V10.9166C32.705 12.3683 33.7585 13.5726 35.2563 13.5726C36.7542 13.5726 37.7912 12.3848 37.7912 10.9331Z"
                fill="#E31515"
        />
        <path
                d="M41.5969 6.69531H42.601C42.8314 6.69531 43.0289 6.89327 43.0289 7.12423V14.7293C43.0289 14.9602 42.8314 15.1582 42.601 15.1582H41.5969C41.3665 15.1582 41.1689 14.9602 41.1689 14.7293V7.10773C41.1689 6.87678 41.35 6.69531 41.5969 6.69531Z"
                fill="#E31515"
        />
        <path
                d="M44.4431 10.9331V10.9166C44.4431 8.50804 46.2537 6.54492 48.838 6.54492C50.2371 6.54492 51.126 6.95734 51.8667 7.56773C52.0313 7.7162 52.0642 7.96365 51.916 8.14511L51.2412 8.92046C51.1095 9.08543 50.8626 9.10193 50.698 8.96996C50.1383 8.52454 49.5458 8.26059 48.8215 8.26059C47.406 8.26059 46.369 9.44836 46.369 10.9001V11.0321C46.369 12.4178 47.4718 13.5891 48.8544 13.5726C49.661 13.5561 50.2042 13.2756 50.7638 12.8137C50.9284 12.6817 51.1589 12.6982 51.2906 12.8467L51.9325 13.4901C52.0971 13.6551 52.0806 13.919 51.916 14.0675C51.126 14.8263 50.2042 15.2882 48.7557 15.2882C46.2867 15.2882 44.4431 13.3581 44.4431 10.9331Z"
                fill="#E31515"
        />
        <path
                d="M53.8266 6.69531H59.3737C59.6042 6.69531 59.7852 6.87678 59.7852 7.10773V7.94907C59.7852 8.18003 59.6042 8.36149 59.3737 8.36149H55.2587V10.0607H58.8305C59.061 10.0607 59.242 10.2421 59.242 10.4731V11.3144C59.242 11.5454 59.061 11.7268 58.8305 11.7268H55.2587V13.5085H59.4231C59.6535 13.5085 59.8346 13.69 59.8346 13.9209V14.7623C59.8346 14.9932 59.6535 15.1747 59.4231 15.1747H53.8102C53.5797 15.1747 53.3987 14.9932 53.3987 14.7623V7.09124C53.4151 6.87678 53.5962 6.69531 53.8266 6.69531Z"
                fill="#E31515"
        />
        <path
                d="M61.5951 6.69531H62.6979C62.8296 6.69531 62.9448 6.7613 63.0107 6.86028L66.8459 11.9083V7.09124C66.8459 6.86028 67.027 6.69531 67.241 6.69531H68.2615C68.4919 6.69531 68.6565 6.87678 68.6565 7.09124V14.7293C68.6565 14.9602 68.4755 15.1252 68.2615 15.1252H67.3068C67.1751 15.1252 67.0599 15.0592 66.9941 14.9602L63.0271 9.74723V14.7128C63.0271 14.9437 62.8461 15.1087 62.6321 15.1087H61.6116C61.3811 15.1087 61.2165 14.9272 61.2165 14.7128V7.09124C61.1836 6.87678 61.3647 6.69531 61.5951 6.69531Z"
                fill="#E31515"
        />
        <path
                d="M72.3586 8.39449H70.1364C69.9389 8.39449 69.7908 8.22952 69.7908 8.04805V7.04175C69.7908 6.84378 69.9554 6.69531 70.1364 6.69531H76.4242C76.6217 6.69531 76.7699 6.86028 76.7699 7.04175V8.04805C76.7699 8.24601 76.6053 8.39449 76.4242 8.39449H74.2186V14.7788C74.2186 14.9767 74.054 15.1252 73.8729 15.1252H72.7207C72.5232 15.1252 72.375 14.9602 72.375 14.7788V8.39449H72.3586Z"
                fill="#E31515"
        />
        <path
                d="M78.2834 6.69531H83.8963C84.1103 6.69531 84.2749 6.86028 84.2749 7.07474V7.98207C84.2749 8.19652 84.1103 8.36149 83.8963 8.36149H79.7483V10.0607H83.3531C83.5671 10.0607 83.7317 10.2256 83.7317 10.4401V11.3474C83.7317 11.5619 83.5671 11.7268 83.3531 11.7268H79.7483V13.5085H83.9457C84.1596 13.5085 84.3243 13.6735 84.3243 13.8879V14.7953C84.3243 15.0097 84.1596 15.1747 83.9457 15.1747H78.2834C78.0694 15.1747 77.9048 15.0097 77.9048 14.7953V7.05824C77.9048 6.86028 78.0694 6.69531 78.2834 6.69531Z"
                fill="#E31515"
        />
        <path
                d="M85.6744 7.04175C85.6744 6.84378 85.8226 6.69531 86.0201 6.69531H89.5261C90.596 6.69531 91.4355 6.99226 91.9787 7.55315C92.456 8.03156 92.7029 8.69143 92.7029 9.48328V9.49977C92.7029 10.869 91.9622 11.7268 90.8923 12.1228L92.5877 14.5973C92.7523 14.8282 92.5877 15.1417 92.3079 15.1417H90.9911C90.8758 15.1417 90.7606 15.0757 90.6948 14.9932L88.9829 12.4362H87.518V14.7953C87.518 14.9932 87.3698 15.1417 87.1723 15.1417H86.0036C85.8061 15.1417 85.658 14.9932 85.658 14.7953V7.04175H85.6744ZM89.4109 10.7865C90.3162 10.7865 90.8265 10.3081 90.8265 9.59875V9.56576C90.8265 8.77391 90.2668 8.36149 89.3615 8.36149H87.518V10.7865H89.4109Z"
                fill="#E31515"
        />
        <path
                d="M14.8157 14.8304V14.9128C14.8321 15.0778 14.9144 15.2098 15.0461 15.3088L15.6387 15.7542C15.902 15.9521 16.2806 15.9027 16.4782 15.6387C17.4658 14.3025 17.9925 12.7353 17.9925 11.1021C17.9925 9.46889 17.4822 7.8687 16.4946 6.54896C16.2971 6.28501 15.9185 6.23552 15.6551 6.43348L15.0626 6.87889C14.9309 6.97787 14.8486 7.10985 14.8321 7.27482V7.3573C14.8321 7.48928 14.8815 7.60475 14.9474 7.72023C15.6881 8.71004 16.0831 9.88131 16.0831 11.1021C16.0831 12.3228 15.6881 13.4941 14.9474 14.4839C14.8651 14.5664 14.8157 14.6984 14.8157 14.8304Z"
                fill="#E31515"
        />
        <path
                d="M12.3477 13.0305V13.113C12.3641 13.2614 12.4629 13.4099 12.5781 13.5089L13.0554 13.8553C13.3188 14.0533 13.6974 14.0038 13.8949 13.7398C15.0142 12.2386 15.0142 9.92907 13.8949 8.42786C13.6974 8.16391 13.3188 8.11442 13.0554 8.31238L12.5781 8.65882C12.4464 8.7578 12.3641 8.88977 12.3477 9.05474V9.13723C12.3477 9.2692 12.397 9.40118 12.4629 9.50016C13.1377 10.391 13.1377 11.7767 12.4629 12.684C12.397 12.783 12.3477 12.8985 12.3477 13.0305Z"
                fill="#E31515"
        />
        <path
                d="M17.5821 17.0893C17.3352 16.8418 16.9237 16.8418 16.6768 17.0893C15.0802 18.6895 12.9568 19.5638 10.7183 19.5638C6.06002 19.5473 2.27418 15.753 2.27418 11.0844C2.27418 6.41584 6.06002 2.62157 10.7183 2.62157C12.9568 2.62157 15.0802 3.4959 16.6768 5.09609C16.9237 5.34355 17.3352 5.34355 17.5821 5.09609L18.1418 4.5352C18.3887 4.28775 18.3887 3.85883 18.1418 3.62788C16.1501 1.63176 13.5165 0.542969 10.7183 0.542969C4.90781 0.542969 0.200195 5.26106 0.200195 11.0844C0.200195 16.9078 4.92427 21.6259 10.7183 21.6259C13.5165 21.6259 16.1501 20.5371 18.1418 18.5575C18.3887 18.3101 18.3887 17.8811 18.1418 17.6502L17.5821 17.0893Z"
                fill="#E31515"
        />
        <path
                d="M10.6517 12.0753C11.1971 12.0753 11.6393 11.6322 11.6393 11.0855C11.6393 10.5389 11.1971 10.0957 10.6517 10.0957C10.1062 10.0957 9.66406 10.5389 9.66406 11.0855C9.66406 11.6322 10.1062 12.0753 10.6517 12.0753Z"
                fill="#E31515"
        />
    </g>
    <defs>
        <clipPath id="clip0_2910_27428">
            <rect
                    width="93"
                    height="21.1159"
                    fill="white"
                    transform="translate(0.200195 0.542969)"
            />
        </clipPath>
    </defs>
</svg>